# xmcd
#
# Track frame offsets:
#	150
#	20267
#	35202
#	48865
#	64382
#	83167
#	101687
#	121097
#	139327
#	153322
#	172425
#
# Disc length: 2414 seconds
#
# Revision: 1
# Processed by: cddbd v1.5.1PL0 Copyright (c) Steve Scherf et al.
# Submitted via: MusicWizard 7.0.2
#
DISCID=98096c0b
DTITLE=First Star - My Grip is like a Cobra
DYEAR=1991
DGENRE=Rap
TTITLE0=Explode
TTITLE1=All I want to do
TTITLE2=Ladies Night out
TTITLE3=Diss is for the Suckas
TTITLE4=The Duce
TTITLE5=My Grip is like a Cobra
TTITLE6=Stop Jockin
TTITLE7=It`s on you
TTITLE8=Diss is for the Suckas (Underground Remix)
TTITLE9=Why you want to talk about me
TTITLE10=Calling Shouts
EXTD=
EXTT0=
EXTT1=
EXTT2=
EXTT3=
EXTT4=
EXTT5=
EXTT6=
EXTT7=
EXTT8=
EXTT9=
EXTT10=
PLAYORDER=
